<svg height="100" viewBox="0 0 100 100" width="100" xmlns="http://www.w3.org/2000/svg">
    <path d="m69.55 46.86a19.91 19.91 0 0 0 -2.64-6.35l2.53-2.51v-2.49l-8.71-1.18a19.9 19.9 0 0 0 -6.35-2.64v-1.2h-8.75v1.19a19.9 19.9 0 0 0 -6.35 2.64l-8.71 1.18v2.5l2.53 2.53a19.91 19.91 0 0 0 -2.64 6.35h-3.58v8.75h3.56a19.91 19.91 0 0 0 2.64 6.37h-2.53v2.48l6.19 6.19 2.53-2.53a19.9 19.9 0 0 0 6.35 2.64v3.56h8.75v-3.55a19.9 19.9 0 0 0 6.35-2.64l2.53 2.53 6.19-6.19v-2.49h-2.53a19.91 19.91 0 0 0 2.64-6.35h3.56v-8.79zm-7.06 10.68a14 14 0 0 1 -6.19 6.19 13.9 13.9 0 0 1 -12.6 0 14 14 0 0 1 -6.19-6.19 13.9 13.9 0 0 1 0-12.6 14 14 0 0 1 6.19-6.19 13.9 13.9 0 0 1 12.6 0 14 14 0 0 1 6.19 6.19 13.9 13.9 0 0 1 0 12.6z" fill="#007aff"/>
    <path d="m69.55 44.39a19.91 19.91 0 0 0 -2.63-6.39l2.53-2.53-6.19-6.19-2.53 2.53a19.9 19.9 0 0 0 -6.35-2.64v-3.53h-8.75v3.56a19.9 19.9 0 0 0 -6.35 2.64l-2.53-2.53-6.19 6.19 2.52 2.5a19.91 19.91 0 0 0 -2.64 6.35h-3.56v8.75h3.56a19.91 19.91 0 0 0 2.64 6.35l-2.52 2.55 6.19 6.19 2.53-2.53a19.9 19.9 0 0 0 6.35 2.64v3.56h8.75v-3.55a19.9 19.9 0 0 0 6.35-2.64l2.53 2.53 6.18-6.2-2.53-2.53a19.91 19.91 0 0 0 2.64-6.35h3.56v-8.73z" fill="#007aff"/>
    <circle cx="50" cy="48.76" fill="#181818" r="15.33"/>
    <path d="m49.76 46.99h8.27v3.54h-8.27z" fill="#007aff"/>
    <path d="m48.23 38.08h3.54v12.45h-3.54z" fill="#007aff"/>
    <path d="m63.56 48.76h3.54a17.11 17.11 0 0 0 -17.1-17.09v3.53a13.57 13.57 0 0 1 13.56 13.56z" fill="#007aff"/>
    <path d="m63.56 48.76a13.56 13.56 0 1 1 -13.56-13.56v-3.53a17.09 17.09 0 1 0 17.09 17.09z" fill="#007aff"/>
</svg>